<svg width="71" height="163" viewBox="0 0 71 163" fill="none" xmlns="http://www.w3.org/2000/svg">
<path fill-rule="evenodd" clip-rule="evenodd" d="M21.452 154.724C23.1897 155.693 32.8918 162.64 32.8921 162.916C32.8926 163.201 26.4559 162.704 24.4033 162.261C21.4896 161.632 17.6834 159.773 16.1278 158.218C15.483 157.574 14.4438 156.167 13.8184 155.092L13.1213 153.894C12.5758 153.921 12.0282 153.934 11.4785 153.934C4.83901 154.724 2.6698 155.478 1.08461 157.994L-1.2368e-06 157.155C1.41833 153.934 5.08931 151.552 11.5581 151.887C12.5768 151.779 13.5917 151.671 14.5942 151.552L14.3138 151.557L14.8259 149.755C16.0347 145.499 17.9632 143.231 22.1567 141.133C23.4175 140.502 25.0935 139.503 25.8812 138.911L27.3134 137.837L27.0843 138.966C26.3711 142.482 22.7856 148.689 20.5458 150.564C21.6868 150.293 22.7808 149.966 23.811 149.558C24.9961 149.111 26.167 148.59 27.3211 148C27.2716 147.659 27.2799 147.178 27.3289 146.538C27.6157 142.795 28.5557 140.79 33.1643 134.09L37.6303 127.596L37.4249 129.7C37.3121 130.857 36.8449 133.578 36.3867 135.746C35.6332 139.313 34.5139 142.213 33.0518 144.407C35.319 142.712 37.4957 140.744 39.5599 138.535L39.3896 137.516C38.7538 133.71 40.0477 126.952 42.3667 121.964C42.8443 120.938 43.7802 118.561 44.4467 116.683L45.6584 113.269L45.7634 119.61C45.8223 123.162 45.7026 127.075 45.4916 128.508C45.2812 129.935 44.7461 131.576 44.0184 133.153C46.1346 130.282 48.0873 127.137 49.8452 123.764C49.6588 123.956 49.5173 124.041 49.4525 123.982C48.882 123.463 48.1455 118.667 48.1497 115.497C48.1523 113.49 48.5854 109.743 49.3089 105.465C49.9441 101.709 50.4771 97.9782 50.4931 97.1734C50.5221 95.7301 50.5311 95.7377 51.1607 97.7508C51.9089 100.143 53.1193 108.402 53.1193 111.114C53.1193 112.15 52.8726 114.65 52.5709 116.67C52.4407 117.541 52.3109 118.274 52.1675 118.915C53.5402 115.788 54.7527 112.504 55.784 109.091C60.1184 95.1142 61.1616 79.033 59.0881 63.9545C59.0881 63.9625 59.0881 63.9705 59.0881 63.9784C59.0881 65.5435 59.0131 65.5361 57.3241 63.8055C55.2036 61.6324 53.0352 58.1117 50.8393 53.2758C49.7431 50.8615 48.3754 48.0631 47.8004 47.0572C47.2253 46.051 46.8348 45.2281 46.9326 45.2281C47.5852 45.2281 53.399 50.1006 54.5966 51.6513C56.1998 53.727 57.4226 56.0688 58.1845 58.4557C57.4055 54.3932 56.3927 50.4352 55.1499 46.6462C55.081 46.6756 54.9924 46.6874 54.8826 46.6865C53.3363 46.6743 47.9192 41.871 45.1432 38.0504C44.4949 37.1585 43.1743 35.5551 42.2084 34.4876C40.2499 32.3229 40.4822 32.1458 43.7789 33.289C47.3438 34.5252 50.5493 37.0209 52.7053 40.0358C51.3921 36.8742 49.9074 33.8813 48.2765 31.0788L47.4345 31.0747C44.6863 31.0616 41.6017 29.9006 38.6949 27.7853C37.2359 26.7235 35.3251 25.4603 34.4488 24.9783C32.3133 23.8034 32.9602 23.2963 36.6061 23.2867C40.2112 23.2773 42.6824 23.956 44.8109 25.7116C43.2339 23.507 41.5592 21.4571 39.8035 19.5759C39.7896 19.6231 39.7687 19.6675 39.7406 19.7088C39.6255 19.8781 38.9701 20.1769 38.2841 20.3726C36.2757 20.9454 33.9662 20.8697 30.0735 20.1033C28.0673 19.7085 25.8664 19.3834 25.1824 19.3813C24.4984 19.3791 23.9389 19.203 23.9389 18.9901C23.9389 18.7771 25.2446 17.9616 26.8403 17.1777C30.4905 15.385 34.4033 15.2027 37.0553 16.6706C35.0539 14.5068 33.5027 12.799 32.3294 11.4759C32.1995 11.5623 31.9836 11.5733 31.6521 11.5733C29.1861 11.5733 27.2431 10.1398 24.7616 6.48973C22.1785 2.69021 20.6688 -0.606465 21.833 0.0947462C22.1705 0.298138 23.4912 0.860879 24.7679 1.34504C29.9777 3.32099 31.6895 5.26435 32.381 9.98811C32.384 10.0083 32.3869 10.0283 32.3897 10.048C34.3855 11.8384 36.8728 14.1966 38.4209 15.7089C38.3576 15.6186 38.296 15.5288 38.2364 15.4397C36.3146 12.568 35.3799 9.97805 34.5479 5.22027L33.9565 1.83879L34.6677 2.39027C35.059 2.6938 36.2604 3.81809 37.3377 4.88895C41.5368 9.06291 43.7108 14.3396 42.9848 18.5943C42.8656 19.2931 42.7036 19.865 42.625 19.865C42.5097 19.865 42.3413 19.791 42.1346 19.6579C47.807 26.2877 52.5047 34.7095 55.8469 44.3565C55.3128 42.2573 54.9976 39.7716 54.995 37.3456C54.992 34.4014 55.2288 32.5483 56.1122 28.607L57.2331 23.6051L58.1778 27.71C60.7164 38.7411 60.7995 42.2201 58.6522 47.5734L57.9731 49.2664L57.2341 48.0027C57.0441 47.6778 56.863 47.3129 56.6921 46.9141C57.9999 51.0696 59.061 55.434 59.8467 59.965C59.8713 59.062 59.9526 58.1973 60.0895 57.3465C60.5674 54.3766 61.8765 49.7702 62.5585 48.6589C62.811 48.2473 63.5268 46.6659 64.149 45.1447C65.2489 42.4558 65.2807 42.4218 65.2886 43.9253C65.2931 44.776 65.4129 47.9023 65.5547 50.873C65.9713 59.5965 64.9144 64.856 62.2677 67.2298C61.5279 67.8934 61.1661 68.1912 60.9286 67.9913C61.2742 71.5497 61.4532 75.1891 61.4532 78.8912C61.4532 79.298 61.451 79.704 61.4467 80.1093C62.2918 76.8219 65.616 69.6085 66.954 68.2461C67.3997 67.7921 68.3029 66.7622 68.9609 65.9573C69.8789 64.8346 70.1021 64.7096 69.9197 65.4204C69.789 65.9297 69.4576 68.3441 69.1833 70.7857C68.2078 79.4669 66.4958 84.43 63.4637 87.3673C62.4653 88.3342 61.4455 89.1255 61.1973 89.1255C61.1251 89.1255 61.0617 89.0661 61.007 88.9557C60.6378 93.0858 60.0447 97.1098 59.2466 100.999C60.3002 98.5451 61.6103 96.3798 62.8363 95.2852C63.4759 94.7141 64.8713 93.3557 65.9373 92.2662C67.0033 91.1769 68.5785 89.6911 69.4377 88.9645L71 87.6433L69.0235 93.5126C67.9365 96.7408 66.5231 100.543 65.8827 101.961C64.4629 105.107 62.0822 107.857 59.705 109.099C57.7182 110.137 57.1766 110.364 57.1381 109.426C55.8026 113.919 54.1816 118.179 52.3097 122.154C53.0479 121.019 53.8069 119.991 54.4297 119.327C56.5158 117.104 60.2237 114.611 62.3644 113.993C63.3893 113.696 64.7905 113.138 65.4781 112.752C67.2378 111.764 67.304 111.847 66.1808 113.635C65.6332 114.507 64.5249 116.513 63.718 118.094C62.2196 121.029 58.8091 125.373 56.8083 126.895C56.1951 127.361 54.7786 128.04 53.6603 128.404C52.5422 128.768 51.3287 128.971 50.964 128.856C50.5992 128.741 50.0359 128.644 49.712 128.64C49.2266 128.634 49.17 128.543 49.4897 127.597C41.6372 141.4 30.5109 150.879 17.9214 153.315C19.1699 153.67 20.4474 154.164 21.452 154.724ZM46.4373 152.324C45.6442 152.649 43.5031 153.582 41.6793 154.396C35.935 156.959 29.7364 156.216 26.9438 152.63L25.8777 151.26L26.7315 150.688C29.9253 148.548 34.8626 148.127 39.7917 149.575C41.5594 150.095 44.1023 150.792 45.4425 151.125L47.8792 151.731L46.4373 152.324ZM55.7766 137.63C52.1222 141.347 51.1337 142.069 47.3165 143.812C45.0342 144.853 41.5965 144.713 39.6185 143.497L38.4283 142.766L39.7221 141.095C40.4338 140.175 41.9861 138.728 43.1715 137.879C44.3569 137.03 45.5618 136.16 45.8491 135.947C46.8965 135.171 58.8538 133.254 59.3548 133.782C59.4102 133.841 57.8001 135.573 55.7766 137.63ZM57.4278 90.9361C58.3013 95.0959 58.2904 99.5325 57.398 103.041C56.7136 105.731 56.692 105.76 56.0363 104.888C55.2257 103.81 54.2231 100.992 53.5722 97.9628C53.1908 96.1874 52.5282 84.8037 52.4758 79.1267C52.4599 77.3997 56.7174 87.553 57.4278 90.9361ZM59.609 77.3709C59.9745 79.4925 60.0758 81.329 59.9252 83.1021C59.8033 84.5371 59.5944 85.7112 59.4609 85.7112C59.1623 85.7112 56.1269 79.7678 55.2111 77.3901C54.6151 75.8425 53.6059 71.6182 51.9917 63.9147C51.7 62.5231 51.4614 61.2723 51.4614 61.1355C51.4614 60.9987 52.8065 62.7801 54.4504 65.0943C57.6769 69.6365 58.6931 72.0547 59.609 77.3709ZM51.651 20.1838C52.5987 22.9805 52.8931 27.0725 52.3913 30.4737C52.2231 31.6138 51.9355 32.5464 51.7519 32.5464C51.5682 32.5464 50.6283 31.3941 49.6631 29.9859C46.9663 26.0513 45.8024 20.2447 46.3109 13.2618L46.5426 10.0784L48.671 13.8744C49.8415 15.9619 51.1826 18.8013 51.651 20.1838Z" fill="#9AA19A"/>
</svg>
