<svg width="71" height="163" viewBox="0 0 71 163" fill="none" xmlns="http://www.w3.org/2000/svg">
<path fill-rule="evenodd" clip-rule="evenodd" d="M49.548 154.724C47.8103 155.693 38.1082 162.64 38.1079 162.916C38.1074 163.201 44.5441 162.704 46.5967 162.261C49.5104 161.632 53.3166 159.773 54.8722 158.218C55.517 157.574 56.5562 156.167 57.1816 155.092L57.8787 153.894C58.4242 153.921 58.9718 153.934 59.5215 153.934C66.161 154.724 68.3302 155.478 69.9154 157.994L71 157.155C69.5817 153.934 65.9107 151.552 59.4419 151.887C58.4232 151.779 57.4083 151.671 56.4058 151.552L56.6862 151.557L56.1741 149.755C54.9653 145.499 53.0368 143.231 48.8433 141.133C47.5825 140.502 45.9065 139.503 45.1188 138.911L43.6866 137.837L43.9157 138.966C44.6289 142.482 48.2144 148.689 50.4542 150.564C49.3132 150.293 48.2192 149.966 47.189 149.558C46.0039 149.111 44.833 148.59 43.6789 148C43.7284 147.659 43.7201 147.178 43.6711 146.538C43.3843 142.795 42.4443 140.79 37.8357 134.09L33.3697 127.596L33.5751 129.7C33.6879 130.857 34.1551 133.578 34.6133 135.746C35.3668 139.313 36.4861 142.213 37.9482 144.407C35.681 142.712 33.5043 140.744 31.4401 138.535L31.6104 137.516C32.2462 133.71 30.9523 126.952 28.6333 121.964C28.1557 120.938 27.2198 118.561 26.5533 116.683L25.3416 113.269L25.2366 119.61C25.1777 123.162 25.2974 127.075 25.5084 128.508C25.7188 129.935 26.2539 131.576 26.9816 133.153C24.8654 130.282 22.9127 127.137 21.1548 123.764C21.3412 123.956 21.4827 124.041 21.5475 123.982C22.118 123.463 22.8545 118.667 22.8503 115.497C22.8477 113.49 22.4146 109.743 21.6911 105.465C21.0559 101.709 20.5229 97.9782 20.5069 97.1734C20.4779 95.7301 20.4689 95.7377 19.8393 97.7508C19.0911 100.143 17.8807 108.402 17.8807 111.114C17.8807 112.15 18.1274 114.65 18.4291 116.67C18.5593 117.541 18.6891 118.274 18.8325 118.915C17.4598 115.788 16.2473 112.504 15.216 109.091C10.8816 95.1142 9.83843 79.033 11.9119 63.9545C11.9119 63.9625 11.9119 63.9705 11.9119 63.9784C11.9119 65.5435 11.9869 65.5361 13.6759 63.8055C15.7964 61.6324 17.9648 58.1117 20.1607 53.2758C21.2569 50.8615 22.6246 48.0631 23.1996 47.0572C23.7747 46.051 24.1652 45.2281 24.0674 45.2281C23.4148 45.2281 17.601 50.1006 16.4034 51.6513C14.8002 53.727 13.5774 56.0688 12.8155 58.4557C13.5945 54.3932 14.6073 50.4352 15.8501 46.6462C15.919 46.6756 16.0076 46.6874 16.1174 46.6865C17.6637 46.6743 23.0808 41.871 25.8568 38.0504C26.5051 37.1585 27.8257 35.5551 28.7916 34.4876C30.7501 32.3229 30.5178 32.1458 27.2211 33.289C23.6562 34.5252 20.4507 37.0209 18.2947 40.0358C19.6079 36.8742 21.0926 33.8813 22.7235 31.0788L23.5655 31.0747C26.3137 31.0616 29.3983 29.9006 32.3051 27.7853C33.7641 26.7235 35.6749 25.4603 36.5512 24.9783C38.6867 23.8034 38.0398 23.2963 34.3939 23.2867C30.7888 23.2773 28.3176 23.956 26.1891 25.7116C27.7661 23.507 29.4408 21.4571 31.1965 19.5759C31.2104 19.6231 31.2313 19.6675 31.2594 19.7088C31.3745 19.8781 32.0299 20.1769 32.7159 20.3726C34.7243 20.9454 37.0338 20.8697 40.9265 20.1033C42.9327 19.7085 45.1336 19.3834 45.8176 19.3813C46.5016 19.3791 47.0611 19.203 47.0611 18.9901C47.0611 18.7771 45.7554 17.9616 44.1597 17.1777C40.5095 15.385 36.5967 15.2027 33.9447 16.6706C35.9461 14.5068 37.4973 12.799 38.6706 11.4759C38.8005 11.5623 39.0164 11.5733 39.3479 11.5733C41.8139 11.5733 43.7569 10.1398 46.2384 6.48973C48.8215 2.69021 50.3312 -0.606465 49.167 0.0947462C48.8295 0.298138 47.5088 0.860879 46.2321 1.34504C41.0223 3.32099 39.3105 5.26435 38.619 9.98811C38.616 10.0083 38.6131 10.0283 38.6103 10.048C36.6145 11.8384 34.1272 14.1966 32.5791 15.7089C32.6424 15.6186 32.704 15.5288 32.7636 15.4397C34.6854 12.568 35.6201 9.97805 36.4521 5.22027L37.0435 1.83879L36.3323 2.39027C35.941 2.6938 34.7396 3.81809 33.6623 4.88895C29.4632 9.06291 27.2892 14.3396 28.0152 18.5943C28.1344 19.2931 28.2964 19.865 28.375 19.865C28.4903 19.865 28.6587 19.791 28.8654 19.6579C23.193 26.2877 18.4953 34.7095 15.1531 44.3565C15.6872 42.2573 16.0024 39.7716 16.005 37.3456C16.008 34.4014 15.7712 32.5483 14.8878 28.607L13.7669 23.6051L12.8222 27.71C10.2836 38.7411 10.2005 42.2201 12.3478 47.5734L13.0269 49.2664L13.7659 48.0027C13.9559 47.6778 14.137 47.3129 14.3079 46.9141C13.0001 51.0696 11.939 55.434 11.1533 59.965C11.1287 59.062 11.0474 58.1973 10.9105 57.3465C10.4326 54.3766 9.12348 49.7702 8.44151 48.6589C8.189 48.2473 7.47324 46.6659 6.85097 45.1447C5.75105 42.4558 5.71933 42.4218 5.71139 43.9253C5.70688 44.776 5.58714 47.9023 5.44527 50.873C5.0287 59.5965 6.08564 64.856 8.7323 67.2298C9.47205 67.8934 9.83387 68.1912 10.0714 67.9913C9.7258 71.5497 9.54685 75.1891 9.54685 78.8912C9.54685 79.298 9.54901 79.704 9.55331 80.1093C8.70824 76.8219 5.38397 69.6085 4.04602 68.2461C3.60026 67.7921 2.69713 66.7622 2.03908 65.9573C1.12108 64.8346 0.897921 64.7096 1.08025 65.4204C1.21095 65.9297 1.54236 68.3441 1.81672 70.7857C2.79224 79.4669 4.50422 84.43 7.53633 87.3673C8.53467 88.3342 9.55453 89.1255 9.80269 89.1255C9.8749 89.1255 9.9383 89.0661 9.99303 88.9557C10.3622 93.0858 10.9553 97.1098 11.7534 100.999C10.6998 98.5451 9.3897 96.3798 8.16375 95.2852C7.52413 94.7141 6.12866 93.3557 5.06269 92.2662C3.99672 91.1769 2.42154 89.6911 1.56228 88.9645L0 87.6433L1.97649 93.5126C3.06355 96.7408 4.47692 100.543 5.11731 101.961C6.53706 105.107 8.91779 107.857 11.295 109.099C13.2818 110.137 13.8234 110.364 13.8619 109.426C15.1974 113.919 16.8184 118.179 18.6903 122.154C17.9521 121.019 17.1931 119.991 16.5703 119.327C14.4842 117.104 10.7763 114.611 8.6356 113.993C7.6107 113.696 6.20954 113.138 5.52193 112.752C3.7622 111.764 3.69599 111.847 4.81919 113.635C5.36683 114.507 6.47507 116.513 7.28196 118.094C8.78042 121.029 12.1909 125.373 14.1917 126.895C14.8049 127.361 16.2214 128.04 17.3397 128.404C18.4578 128.768 19.6713 128.971 20.036 128.856C20.4008 128.741 20.9641 128.644 21.288 128.64C21.7734 128.634 21.83 128.543 21.5103 127.597C29.3628 141.4 40.4891 150.879 53.0786 153.315C51.8301 153.67 50.5526 154.164 49.548 154.724ZM24.5627 152.324C25.3558 152.649 27.4969 153.582 29.3207 154.396C35.065 156.959 41.2636 156.216 44.0562 152.63L45.1223 151.26L44.2685 150.688C41.0747 148.548 36.1374 148.127 31.2083 149.575C29.4406 150.095 26.8977 150.792 25.5575 151.125L23.1208 151.731L24.5627 152.324ZM15.2234 137.63C18.8778 141.347 19.8663 142.069 23.6835 143.812C25.9658 144.853 29.4035 144.713 31.3815 143.497L32.5717 142.766L31.2779 141.095C30.5662 140.175 29.0139 138.728 27.8285 137.879C26.6431 137.03 25.4382 136.16 25.1509 135.947C24.1035 135.171 12.1462 133.254 11.6452 133.782C11.5898 133.841 13.1999 135.573 15.2234 137.63ZM13.5722 90.9361C12.6987 95.0959 12.7096 99.5325 13.602 103.041C14.2864 105.731 14.308 105.76 14.9637 104.888C15.7743 103.81 16.7769 100.992 17.4278 97.9628C17.8092 96.1874 18.4718 84.8037 18.5242 79.1267C18.5401 77.3997 14.2826 87.553 13.5722 90.9361ZM11.391 77.3709C11.0255 79.4925 10.9242 81.329 11.0748 83.1021C11.1967 84.5371 11.4056 85.7112 11.5391 85.7112C11.8377 85.7112 14.8731 79.7678 15.7889 77.3901C16.3849 75.8425 17.3941 71.6182 19.0083 63.9147C19.3 62.5231 19.5386 61.2723 19.5386 61.1355C19.5386 60.9987 18.1935 62.7801 16.5496 65.0943C13.3231 69.6365 12.3069 72.0547 11.391 77.3709ZM19.349 20.1838C18.4013 22.9805 18.1069 27.0725 18.6087 30.4737C18.7769 31.6138 19.0645 32.5464 19.2481 32.5464C19.4318 32.5464 20.3717 31.3941 21.3369 29.9859C24.0337 26.0513 25.1976 20.2447 24.6891 13.2618L24.4574 10.0784L22.329 13.8744C21.1585 15.9619 19.8174 18.8013 19.349 20.1838Z" fill="#9AA19A"/>
</svg>
