<svg aria-hidden="true" style="position: absolute; width: 0; height: 0; overflow: hidden;" version="1.1" xmlns="http://www.w3.org/2000/svg" xmlns:xlink="http://www.w3.org/1999/xlink">
<defs>
<symbol id="icon-branch-left" viewBox="0 0 14 32">
<path fill="#9aa19a" style="fill: var(--color1, #9aa19a)" d="M9.727 30.375c-0.341 0.19-2.246 1.554-2.246 1.608-0 0.056 1.264-0.042 1.667-0.129 0.572-0.123 1.319-0.488 1.625-0.794 0.127-0.126 0.331-0.403 0.453-0.614l0.137-0.235c0.107 0.005 0.215 0.008 0.322 0.008 1.303 0.155 1.729 0.303 2.041 0.797l0.213-0.165c-0.278-0.632-0.999-1.1-2.269-1.034-0.2-0.021-0.399-0.042-0.596-0.066l0.055 0.001-0.101-0.354c-0.237-0.836-0.616-1.281-1.439-1.693-0.248-0.124-0.577-0.32-0.731-0.436l-0.281-0.211 0.045 0.222c0.14 0.69 0.844 1.909 1.284 2.277-0.224-0.053-0.439-0.117-0.641-0.198-0.233-0.088-0.463-0.19-0.689-0.306 0.010-0.067 0.008-0.161-0.002-0.287-0.056-0.735-0.241-1.128-1.146-2.444l-0.877-1.275 0.040 0.413c0.022 0.227 0.114 0.761 0.204 1.187 0.148 0.7 0.368 1.27 0.655 1.7-0.445-0.333-0.872-0.719-1.278-1.153l0.033-0.2c0.125-0.747-0.129-2.074-0.584-3.053-0.094-0.201-0.277-0.668-0.408-1.037l-0.238-0.67-0.021 1.245c-0.012 0.697 0.012 1.466 0.053 1.747 0.041 0.28 0.146 0.602 0.289 0.912-0.415-0.564-0.799-1.181-1.144-1.843 0.037 0.038 0.064 0.054 0.077 0.043 0.112-0.102 0.257-1.043 0.256-1.666-0-0.394-0.086-1.13-0.228-1.969-0.125-0.737-0.229-1.47-0.232-1.628-0.006-0.283-0.007-0.282-0.131 0.113-0.147 0.47-0.385 2.091-0.385 2.623 0 0.203 0.048 0.694 0.108 1.091 0.026 0.171 0.051 0.315 0.079 0.441-0.269-0.614-0.508-1.259-0.71-1.929-0.851-2.744-1.056-5.901-0.649-8.861 0 0.002 0 0.003 0 0.005 0 0.307 0.015 0.306 0.346-0.034 0.416-0.427 0.842-1.118 1.273-2.067 0.215-0.474 0.484-1.023 0.597-1.221s0.19-0.359 0.17-0.359c-0.128 0-1.269 0.957-1.505 1.261-0.315 0.408-0.555 0.867-0.704 1.336 0.153-0.798 0.352-1.575 0.596-2.318 0.014 0.006 0.031 0.008 0.052 0.008 0.304-0.002 1.367-0.945 1.912-1.695 0.127-0.175 0.387-0.49 0.576-0.699 0.385-0.425 0.339-0.46-0.308-0.235-0.7 0.243-1.329 0.733-1.752 1.325 0.258-0.621 0.549-1.208 0.869-1.758l0.165-0.001c0.54-0.003 1.145-0.231 1.716-0.646 0.286-0.208 0.662-0.456 0.834-0.551 0.419-0.231 0.292-0.33-0.424-0.332-0.708-0.002-1.193 0.131-1.611 0.476 0.31-0.433 0.638-0.835 0.983-1.205 0.003 0.009 0.007 0.018 0.012 0.026 0.023 0.033 0.151 0.092 0.286 0.13 0.394 0.112 0.848 0.098 1.612-0.053 0.394-0.078 0.826-0.141 0.96-0.142s0.244-0.035 0.244-0.077c0-0.042-0.256-0.202-0.57-0.356-0.717-0.352-1.485-0.388-2.005-0.1 0.393-0.425 0.697-0.76 0.928-1.020 0.026 0.017 0.068 0.019 0.133 0.019 0.484 0 0.866-0.281 1.353-0.998 0.507-0.746 0.803-1.393 0.575-1.255-0.066 0.040-0.326 0.15-0.576 0.245-1.023 0.388-1.359 0.769-1.495 1.697-0.001 0.004-0.001 0.008-0.002 0.012-0.392 0.351-0.88 0.814-1.184 1.111 0.012-0.018 0.025-0.035 0.036-0.053 0.377-0.564 0.561-1.072 0.724-2.006l0.116-0.664-0.14 0.108c-0.077 0.060-0.313 0.28-0.524 0.491-0.824 0.819-1.251 1.855-1.109 2.691 0.023 0.137 0.055 0.249 0.071 0.249 0.023 0 0.056-0.015 0.096-0.041-1.114 1.302-2.036 2.955-2.692 4.849 0.105-0.412 0.167-0.9 0.167-1.376 0.001-0.578-0.046-0.942-0.219-1.716l-0.22-0.982-0.185 0.806c-0.498 2.166-0.515 2.849-0.093 3.9l0.133 0.332 0.145-0.248c0.037-0.064 0.073-0.135 0.106-0.214-0.257 0.816-0.465 1.673-0.619 2.562-0.005-0.177-0.021-0.347-0.048-0.514-0.094-0.583-0.351-1.487-0.485-1.706-0.050-0.081-0.19-0.391-0.312-0.69-0.216-0.528-0.222-0.535-0.224-0.239-0.001 0.167-0.024 0.781-0.052 1.364-0.082 1.713 0.126 2.745 0.645 3.211 0.145 0.13 0.216 0.189 0.263 0.149-0.068 0.699-0.103 1.413-0.103 2.14 0 0.080 0 0.16 0.001 0.239-0.166-0.645-0.819-2.062-1.081-2.329-0.088-0.089-0.265-0.291-0.394-0.449-0.18-0.22-0.224-0.245-0.188-0.105 0.026 0.1 0.091 0.574 0.145 1.053 0.191 1.704 0.528 2.679 1.123 3.255 0.196 0.19 0.396 0.345 0.445 0.345 0.014 0 0.027-0.012 0.037-0.033 0.072 0.811 0.189 1.601 0.346 2.364-0.207-0.482-0.464-0.907-0.705-1.122-0.126-0.112-0.4-0.379-0.609-0.593s-0.518-0.506-0.687-0.648l-0.307-0.259 0.388 1.152c0.213 0.634 0.491 1.38 0.617 1.659 0.279 0.618 0.746 1.157 1.213 1.401 0.39 0.204 0.496 0.248 0.504 0.064 0.262 0.882 0.58 1.718 0.948 2.499-0.145-0.223-0.294-0.425-0.416-0.555-0.41-0.436-1.137-0.926-1.558-1.047-0.201-0.058-0.476-0.168-0.611-0.244-0.345-0.194-0.358-0.178-0.138 0.173 0.107 0.171 0.325 0.565 0.484 0.875 0.294 0.576 0.964 1.429 1.357 1.728 0.12 0.091 0.398 0.225 0.618 0.296s0.458 0.111 0.529 0.089 0.182-0.042 0.246-0.042c0.095-0.001 0.106-0.019 0.044-0.205 1.542 2.71 3.726 4.571 6.197 5.049-0.245 0.070-0.496 0.167-0.693 0.277zM4.822 29.904c0.156 0.064 0.576 0.247 0.934 0.407 1.128 0.503 2.345 0.357 2.893-0.347l0.209-0.269-0.168-0.112c-0.627-0.42-1.596-0.503-2.564-0.218-0.347 0.102-0.846 0.239-1.109 0.304l-0.478 0.119 0.283 0.116zM2.989 27.019c0.717 0.73 0.912 0.871 1.661 1.214 0.448 0.204 1.123 0.177 1.511-0.062l0.234-0.143-0.254-0.328c-0.14-0.181-0.444-0.465-0.677-0.631s-0.469-0.337-0.526-0.379c-0.206-0.152-2.553-0.529-2.651-0.425-0.011 0.012 0.305 0.352 0.702 0.755zM2.664 17.852c-0.171 0.817-0.169 1.688 0.006 2.376 0.134 0.528 0.139 0.534 0.267 0.363 0.159-0.212 0.356-0.765 0.484-1.36 0.075-0.349 0.205-2.583 0.215-3.698 0.003-0.339-0.833 1.654-0.972 2.318zM2.236 15.189c-0.072 0.416-0.092 0.777-0.062 1.125 0.024 0.282 0.065 0.512 0.091 0.512 0.059 0 0.655-1.167 0.834-1.634 0.117-0.304 0.315-1.133 0.632-2.645 0.057-0.273 0.104-0.519 0.104-0.546s-0.264 0.323-0.587 0.777c-0.633 0.892-0.833 1.366-1.013 2.41zM3.799 3.962c-0.186 0.549-0.244 1.352-0.145 2.020 0.033 0.224 0.089 0.407 0.126 0.407s0.221-0.226 0.41-0.503c0.529-0.772 0.758-1.912 0.658-3.283l-0.045-0.625-0.418 0.745c-0.23 0.41-0.493 0.967-0.585 1.239z"></path>
</symbol>
<symbol id="icon-branch-right" viewBox="0 0 14 32">
<path fill="#9aa19a" style="fill: var(--color1, #9aa19a)" d="M4.211 30.375c0.341 0.19 2.246 1.554 2.246 1.608 0 0.056-1.264-0.042-1.667-0.129-0.572-0.123-1.319-0.488-1.625-0.794-0.127-0.126-0.331-0.403-0.453-0.614l-0.137-0.235c-0.107 0.005-0.215 0.008-0.322 0.008-1.303 0.155-1.729 0.303-2.041 0.797l-0.213-0.165c0.278-0.632 0.999-1.1 2.269-1.034 0.2-0.021 0.399-0.042 0.596-0.066l-0.055 0.001 0.101-0.354c0.237-0.836 0.616-1.281 1.439-1.693 0.248-0.124 0.577-0.32 0.731-0.436l0.281-0.211-0.045 0.222c-0.14 0.69-0.844 1.909-1.284 2.277 0.224-0.053 0.439-0.117 0.641-0.198 0.233-0.088 0.463-0.19 0.689-0.306-0.010-0.067-0.008-0.161 0.002-0.287 0.056-0.735 0.241-1.128 1.146-2.444l0.877-1.275-0.040 0.413c-0.022 0.227-0.114 0.761-0.204 1.187-0.148 0.7-0.368 1.27-0.655 1.7 0.445-0.333 0.872-0.719 1.278-1.153l-0.033-0.2c-0.125-0.747 0.129-2.074 0.584-3.053 0.094-0.201 0.277-0.668 0.408-1.037l0.238-0.67 0.021 1.245c0.012 0.697-0.012 1.466-0.053 1.747-0.041 0.28-0.146 0.602-0.289 0.912 0.415-0.564 0.799-1.181 1.144-1.843-0.037 0.038-0.064 0.054-0.077 0.043-0.112-0.102-0.257-1.043-0.256-1.666 0.001-0.394 0.086-1.13 0.228-1.969 0.125-0.737 0.229-1.47 0.232-1.628 0.006-0.283 0.007-0.282 0.131 0.113 0.147 0.47 0.384 2.091 0.384 2.623 0 0.203-0.048 0.694-0.108 1.091-0.026 0.171-0.051 0.315-0.079 0.441 0.27-0.614 0.508-1.259 0.71-1.929 0.851-2.744 1.056-5.901 0.649-8.861 0 0.002 0 0.003 0 0.005 0 0.307-0.015 0.306-0.346-0.034-0.416-0.427-0.842-1.118-1.273-2.067-0.215-0.474-0.484-1.023-0.597-1.221s-0.19-0.359-0.17-0.359c0.128 0 1.269 0.957 1.505 1.261 0.315 0.408 0.555 0.867 0.704 1.336-0.153-0.798-0.352-1.575-0.596-2.318-0.014 0.006-0.031 0.008-0.052 0.008-0.304-0.002-1.367-0.945-1.912-1.695-0.127-0.175-0.387-0.49-0.576-0.699-0.385-0.425-0.339-0.46 0.308-0.235 0.7 0.243 1.329 0.733 1.752 1.325-0.258-0.621-0.549-1.208-0.869-1.758l-0.165-0.001c-0.54-0.003-1.145-0.231-1.716-0.646-0.286-0.208-0.662-0.456-0.834-0.551-0.419-0.231-0.292-0.33 0.424-0.332 0.708-0.002 1.193 0.131 1.611 0.476-0.31-0.433-0.638-0.835-0.983-1.205-0.003 0.009-0.007 0.018-0.012 0.026-0.023 0.033-0.151 0.092-0.286 0.13-0.394 0.112-0.848 0.098-1.612-0.053-0.394-0.078-0.826-0.141-0.96-0.142s-0.244-0.035-0.244-0.077c0-0.042 0.256-0.202 0.57-0.356 0.717-0.352 1.485-0.388 2.005-0.1-0.393-0.425-0.697-0.76-0.928-1.020-0.026 0.017-0.068 0.019-0.133 0.019-0.484 0-0.866-0.281-1.353-0.998-0.507-0.746-0.803-1.393-0.575-1.255 0.066 0.040 0.326 0.15 0.576 0.245 1.023 0.388 1.359 0.769 1.495 1.697 0.001 0.004 0.001 0.008 0.002 0.012 0.392 0.351 0.88 0.814 1.184 1.111-0.012-0.018-0.025-0.035-0.036-0.053-0.377-0.564-0.561-1.072-0.724-2.006l-0.116-0.664 0.14 0.108c0.077 0.060 0.313 0.28 0.524 0.491 0.824 0.819 1.251 1.855 1.109 2.691-0.023 0.137-0.055 0.249-0.071 0.249-0.023 0-0.056-0.015-0.096-0.041 1.114 1.302 2.036 2.955 2.692 4.849-0.105-0.412-0.167-0.9-0.167-1.376-0.001-0.578 0.046-0.942 0.219-1.716l0.22-0.982 0.185 0.806c0.498 2.166 0.515 2.849 0.093 3.9l-0.133 0.332-0.145-0.248c-0.037-0.064-0.073-0.135-0.106-0.214 0.257 0.816 0.465 1.673 0.619 2.562 0.005-0.177 0.021-0.347 0.048-0.514 0.094-0.583 0.351-1.487 0.485-1.706 0.050-0.081 0.19-0.391 0.312-0.69 0.216-0.528 0.222-0.535 0.224-0.239 0.001 0.167 0.024 0.781 0.052 1.364 0.082 1.713-0.126 2.745-0.645 3.211-0.145 0.13-0.216 0.189-0.263 0.149 0.068 0.699 0.103 1.413 0.103 2.14 0 0.080-0 0.16-0.001 0.239 0.166-0.645 0.819-2.062 1.081-2.329 0.088-0.089 0.265-0.291 0.394-0.449 0.18-0.22 0.224-0.245 0.188-0.105-0.026 0.1-0.091 0.574-0.145 1.053-0.191 1.704-0.528 2.679-1.123 3.255-0.196 0.19-0.396 0.345-0.445 0.345-0.014 0-0.027-0.012-0.037-0.033-0.072 0.811-0.189 1.601-0.346 2.364 0.207-0.482 0.464-0.907 0.705-1.122 0.126-0.112 0.399-0.379 0.609-0.593s0.519-0.506 0.687-0.648l0.307-0.259-0.388 1.152c-0.213 0.634-0.491 1.38-0.617 1.659-0.279 0.618-0.746 1.157-1.213 1.401-0.39 0.204-0.496 0.248-0.504 0.064-0.262 0.882-0.58 1.718-0.948 2.499 0.145-0.223 0.294-0.425 0.416-0.555 0.41-0.436 1.137-0.926 1.558-1.047 0.201-0.058 0.476-0.168 0.611-0.244 0.345-0.194 0.358-0.178 0.138 0.173-0.107 0.171-0.325 0.565-0.483 0.875-0.294 0.576-0.964 1.429-1.357 1.728-0.12 0.091-0.398 0.225-0.618 0.296s-0.458 0.111-0.529 0.089-0.182-0.042-0.246-0.042c-0.095-0.001-0.106-0.019-0.044-0.205-1.542 2.71-3.726 4.571-6.197 5.049 0.245 0.070 0.496 0.167 0.693 0.277zM9.117 29.904c-0.156 0.064-0.576 0.247-0.934 0.407-1.128 0.503-2.345 0.357-2.893-0.347l-0.209-0.269 0.168-0.112c0.627-0.42 1.596-0.503 2.564-0.218 0.347 0.102 0.846 0.239 1.109 0.304l0.478 0.119-0.283 0.116zM10.95 27.019c-0.717 0.73-0.912 0.871-1.661 1.214-0.448 0.204-1.123 0.177-1.511-0.062l-0.234-0.143 0.254-0.328c0.14-0.181 0.444-0.465 0.677-0.631s0.469-0.337 0.526-0.379c0.206-0.152 2.553-0.529 2.651-0.425 0.011 0.012-0.305 0.352-0.702 0.755zM11.274 17.852c0.171 0.817 0.169 1.688-0.006 2.376-0.134 0.528-0.139 0.534-0.267 0.363-0.159-0.212-0.356-0.765-0.484-1.36-0.075-0.349-0.205-2.583-0.215-3.698-0.003-0.339 0.833 1.654 0.972 2.318zM11.702 15.189c0.072 0.416 0.092 0.777 0.062 1.125-0.024 0.282-0.065 0.512-0.091 0.512-0.059 0-0.655-1.167-0.834-1.634-0.117-0.304-0.315-1.133-0.632-2.645-0.057-0.273-0.104-0.519-0.104-0.546s0.264 0.323 0.587 0.777c0.633 0.892 0.833 1.366 1.013 2.41zM10.14 3.962c0.186 0.549 0.244 1.352 0.145 2.020-0.033 0.224-0.089 0.407-0.126 0.407s-0.221-0.226-0.41-0.503c-0.529-0.772-0.758-1.912-0.658-3.283l0.046-0.625 0.418 0.745c0.23 0.41 0.493 0.967 0.585 1.239z"></path>
</symbol>
</defs>
</svg>
